<svg xmlns="http://www.w3.org/2000/svg" xmlns:xlink="http://www.w3.org/1999/xlink" viewBox="0 0 282.51 155.82"><defs><style>.cls-1{fill:url(#linear-gradient);}.cls-2{fill:#f820f8;}</style><linearGradient id="linear-gradient" x1="3.86" y1="77.86" x2="282.47" y2="77.86" gradientUnits="userSpaceOnUse"><stop offset="0" stop-color="#f700f7"/><stop offset="1" stop-color="#790096"/></linearGradient></defs><g id="Layer_2" data-name="Layer 2"><g id="Layer_1-2" data-name="Layer 1"><path class="cls-1" d="M259.59,20.22,203.86,54.6V27.86a25,25,0,0,0-25-25h-150a25,25,0,0,0-25,25v100a25,25,0,0,0,25,25h150a25,25,0,0,0,25-25V101.12l55.73,34.39a15,15,0,0,0,22.88-12.77V33A15,15,0,0,0,259.59,20.22Z"/><path class="cls-2" d="M261.65,21.88c-1,.49-.43.66-.54.8C262.66,21.77,261.57,21.8,261.65,21.88Z"/><path class="cls-2" d="M278.62,25.36l-.34-.18a14.2,14.2,0,0,1,1.82,2.29c-.22-.37-.47-.73-.7-1.09A6.41,6.41,0,0,0,278.62,25.36Z"/><path class="cls-2" d="M281,44.38c.71-1.93-.12-7.39.13-11a5,5,0,0,0,.15-.58l-.67-1.44c.05.49.1,1,.15,1.51s0,1.18.07,1.77c.05,1.21.09,2.44.14,3.63C281,40.61,281.07,42.82,281,44.38Z"/><path class="cls-2" d="M279.43,55.25c.28-.67.24,2.36.09-2.53l-.07.46Z"/><path class="cls-2" d="M279.45,53.18c0-2.15-.23,1.4,0,0Z"/><path class="cls-2" d="M279.61,63.1l-.25-2.83c-.16.59-.2,3.11-.32,2.17C279.17,65.34,279.34,64.75,279.61,63.1Z"/><path class="cls-2" d="M280.13,65.78,280,64.31A3,3,0,0,0,280.13,65.78Z"/><path class="cls-2" d="M279.8,61.2l.22,3.11c.12-.41.35-.45-.08-1.42C280.15,63.14,280,62.53,279.8,61.2Z"/><path class="cls-2" d="M279.91,59.44c.16-1.58.25-3.63.5-.79C280.31,53.23,279.81,54,279.91,59.44Z"/><path class="cls-2" d="M281.71,45.42l.21-2.12-.24-1.84C281.8,42.38,281.49,45.55,281.71,45.42Z"/><path class="cls-2" d="M279.24,80.72c.15.18.4-1,.6-1.16l-.18-2.09A14.43,14.43,0,0,1,279.24,80.72Z"/><path class="cls-2" d="M279.84,79.56l.26,3.13C280.13,79.89,280,79.38,279.84,79.56Z"/><polygon class="cls-2" points="280.92 66.28 280.37 61.15 280.93 67.27 280.92 66.28"/><polygon class="cls-2" points="279.22 92.67 278.87 90.89 279.4 94.05 279.22 92.67"/><path class="cls-2" d="M279.28,100.59c-.29-1.31-.49,1.8-.67.41a47.18,47.18,0,0,0,.53,5.64A34.25,34.25,0,0,1,279.28,100.59Z"/><path class="cls-2" d="M279.46,109.42c-.07-.88-.19-1.79-.32-2.78A26,26,0,0,0,279.46,109.42Z"/><path class="cls-2" d="M280,88a6.79,6.79,0,0,0-.43,2.46l.43-1.22Z"/><path class="cls-2" d="M280,89.2v0l0,2.65C280,91.56,280,90.75,280,89.2Z"/><path class="cls-2" d="M280,87.7V88A.34.34,0,0,0,280,87.7Z"/><path class="cls-2" d="M280.53,74.48c.24,1.84.5,5.67.86,2C281.1,75.12,280.89,77.25,280.53,74.48Z"/><path class="cls-2" d="M280.56,86.18l.1-3.32c-.12.06-.28.66-.4-.25Z"/><polygon class="cls-2" points="280.69 87.8 280.56 86.18 280.52 87.41 280.69 87.8"/><path class="cls-2" d="M279.86,103.73a43.25,43.25,0,0,1,.23,4.78c.09-1.9.13-3.87.13-5.73C280.09,102.51,279.85,101.69,279.86,103.73Z"/><path class="cls-2" d="M280,96.67l0,.32C280,96.79,280.05,96.64,280,96.67Z"/><path class="cls-2" d="M279.78,125.44l.12-.22-.06-.07Z"/><path class="cls-2" d="M280.3,102.46a13.19,13.19,0,0,0-.15-3.1c0,1.07.07,2.2.07,3.42C280.28,102.9,280.32,102.92,280.3,102.46Z"/><path class="cls-2" d="M279.66,114.29c.09-.74.17-1.59.24-2.47A9.87,9.87,0,0,0,279.66,114.29Z"/><path class="cls-2" d="M279.89,97.47l0-.21C279.78,97.72,279.82,97.67,279.89,97.47Z"/><path class="cls-2" d="M279.89,97.47c.06.74.16,1.31.26,1.89,0-.87-.08-1.67-.14-2.37A3.72,3.72,0,0,1,279.89,97.47Z"/><path class="cls-2" d="M280.43,131a8.81,8.81,0,0,1,.76-2.45,36.37,36.37,0,0,0,1.22-4.55c0-1.6-.47-1.87-.92-1.4a5.77,5.77,0,0,0-.76,1.08c-.26.46-.49,1-.83,1.54.08.06.15.09.17.47a4.43,4.43,0,0,1-.06.87c-.1.39-.21.92-.42,1.62a11,11,0,0,0,.65-1.26l.21-.43.14-.47c.11-.32.21-.64.3-.92.34-1.17.48-2,.59-.66a15.45,15.45,0,0,1-.37,2.26,10.44,10.44,0,0,1-.47,1.09,6.19,6.19,0,0,1-.42.66c-.18.22-.38.48-.65.88.29-.31.34-.16.25.24a7.22,7.22,0,0,1-.71,1.66c-.3.68-.77,1.26-1,1.74s-.36.78-.06.75l1.22-1.51,1-1.63C280.39,130.57,279.73,131.82,280.43,131Z"/><path class="cls-2" d="M280.21,119.43l0-1.35a40.46,40.46,0,0,1-.54,4.67,18.12,18.12,0,0,0,.13,1.84,1,1,0,0,0,.09.56c0-.22.12-.45.14-.68l0-.7a13.07,13.07,0,0,0,.09-1.48l0-3.33Z"/><path class="cls-2" d="M280.16,112c.43,1.06.61,4.3,1.08,2.31,0-4-.36-2.77-.55-5.14.11,6.39-.24-1.84-.48,2.78-.08-1.25-.1-2.39-.12-3.45,0,1.15-.11,2.26-.19,3.31l0-.15v0h0c.05-.28.09-.37.06-.06v.13a.76.76,0,0,1,.17.29c-.09,1.85-.12.29-.17-.29,0,0,0-.07-.06-.07v0l.24,6.41C280.22,116.72,280.21,115,280.16,112Z"/><path class="cls-2" d="M282.32,79.86c0,.2-.07.19-.1.2C282.27,80.48,282.31,80.64,282.32,79.86Z"/><path class="cls-2" d="M282.06,82.5a9.27,9.27,0,0,1-.19-2.37c.13-1.32.21,0,.35-.07-.11-.91-.31-3.19-.52-.33l.06.46a25.94,25.94,0,0,1-.75,5.44A11.12,11.12,0,0,0,282.06,82.5Z"/><path class="cls-2" d="M281.22,97.44l.21,5.33.37-2.71-.22.13C281.67,97.16,281.39,97.82,281.22,97.44Z"/><path class="cls-2" d="M279.47,125.89l-.33-.67a12.72,12.72,0,0,1-.12,2.6C279.16,127.16,279.4,126.54,279.47,125.89Z"/><path class="cls-2" d="M276.86,130.92l-.16-.41c-.28.4-.53.85-.85,1.24C276.21,131.51,276.51,131.19,276.86,130.92Z"/><path class="cls-2" d="M1.48,78.45l-.11-1.57C1.41,77.62,1.44,78.1,1.48,78.45Z"/><path class="cls-2" d="M1.46,89.8l.19.28C1.54,89.55,1.46,89.34,1.46,89.8Z"/><path class="cls-2" d="M161.16,150.37c-2.28-.37-4.83-.94-4.56-.5l.7.44A27.51,27.51,0,0,1,161.16,150.37Z"/><path class="cls-2" d="M44.54,153l.67.13,1.54-.41Z"/><path class="cls-2" d="M42.93,154.76l-3-.28C40.6,154.57,41.56,154.67,42.93,154.76Z"/><path class="cls-2" d="M3.89,15.61a14.5,14.5,0,0,1,.58-2,7.94,7.94,0,0,0-.76,1.47c-.12.3-.15.44-.13.49S3.85,15.45,3.89,15.61Z"/><path class="cls-2" d="M218.36,107.27c-1.59-1.17-2.89-2.06-4.05-2.8C216.2,105.93,217.63,107.25,218.36,107.27Z"/><path class="cls-2" d="M6.09,82.92c-.08-1-.17-1.37-.27-1.35C5.9,82.56,6,83.12,6.09,82.92Z"/><path class="cls-2" d="M208.33,100.78l1.46,1,2.43,1.4c.66.38,1.35.8,2.09,1.27-.7-.54-1.46-1.1-2.27-1.61C211.5,102.51,209.66,101.42,208.33,100.78Z"/><path class="cls-2" d="M206.33,35.55a4,4,0,0,1-.05.51C206.34,36.11,206.34,35.88,206.33,35.55Z"/><path class="cls-2" d="M244.38,31.83c-.53.37-1.43.92-2.27,1.44A23.57,23.57,0,0,0,244.38,31.83Z"/><path class="cls-2" d="M255.23,129.62c1.27.74.23.08,0,0Z"/><path class="cls-2" d="M260.41,134.8c-.28-.09-.52-.16-.6-.1A1.65,1.65,0,0,1,260.41,134.8Z"/><path class="cls-2" d="M203.92,110.8v.13C204,110.49,204,110.57,203.92,110.8Z"/><path class="cls-2" d="M257,131c-.44-.34-1-.71-1.53-1.1C255.72,130,256.18,130.37,257,131Z"/><path class="cls-2" d="M256.87,130.62l1.07.71C258.13,131.36,258,131.24,256.87,130.62Z"/><path class="cls-2" d="M253.48,128.56c.72.44,1.37.87,2,1.29-.23-.18-.32-.26-.25-.23Z"/><path class="cls-2" d="M105.35,1.55l.32,0C107.15,1.41,106.5,1.44,105.35,1.55Z"/><path class="cls-2" d="M122.89,154.88l.17,0-.22,0Z"/><path class="cls-2" d="M117.61,155.2a15,15,0,0,1,5.23-.36l-1.75-1.25Z"/><path class="cls-2" d="M1.36,51.27,1,55c-.64-4.47-.42-7.71-1-4.23,1.36.52.14,14.41,1.5,14.93l-.29,2.45c0-.7-.07-.82-.05-1.51-.65,4.76,1,3.53.79,9.66-.11,2.13-.31,3.62-.47,2.17l.34,4.76c0,1.38-.26,1-.24-.34l.11,7.26,0,0c.21,1,.54,3.38.68,4.52-.19,1.85-.14-.92-.31-.45l.33,4c-.35,1.64-.69-1.69-.64-4.47-1.36,3.75.34,3.33-.45,11.43l-.18-3.79c-.77,2.44-.49,5.41-1,9.69.25-1,1.21-8.58,1.55-4.22a25.59,25.59,0,0,0,.12,5.2c-.48,0-.36,2.32-.33,5.19L.81,117c.18,3.1.51,2.86.79,4.69-.06,3.46-.55,4.18-1,5,0,1.35.05,1.95.12,1.93s.14-.52.25-.94.24-.8.34-.67a11.22,11.22,0,0,1,.29,2.56A21,21,0,0,0,2,133.12c.09.56.27,1.1.41,1.64a13.08,13.08,0,0,0,.51,1.61A26.12,26.12,0,0,0,6.61,143c1.91,2.92-.68-.27-.08.84A21.13,21.13,0,0,0,8.88,146c.5.57.22.5.08.46.95.91,1.14.78,1.41.84a1.76,1.76,0,0,1,.65.29c.35.19.79.61,1.64,1.16a3.85,3.85,0,0,1,1.54,1c.37.25.78.55,1.23.89a11.75,11.75,0,0,0,1.49,1,14.69,14.69,0,0,0,7.65,2.56c1.2.37-.65.3-.32.6a25.57,25.57,0,0,0,4,.09c1,0,1.58-.11,2.22-.15,1.23-.12,2.32-.26,5-.61l4.5.42c-3.31-.48.92-1,4.62-1.52-1.17-.23-2.18-.43-2.85-.53l5.91-.34c.71.1.12.32-.85.59l1.08-.16c2.12.24,1,.61-.49,1l-2.13-.4c-1.46.39-2.83.82-2.52,1.2a15.3,15.3,0,0,1,1.93-.18c-.38.11-.62.2-.44.27a8.34,8.34,0,0,0,1.78-.24l1.34.71.33-.28,7.73.45c5.53-.72,10.34-1.78,19.12-2.07-2.18.52-.47.85-.58,1.47-2.4-.66-6.8.28-11.35.15,2.37.07,1.85.36,1.24.46l8.12-.59c-.18.5,1.72.38,3.84.59-1.6-1,6-.67,9.35-1,.21.34-.58.68-4.61.6,4.44.75,5.74-1.18,10.1-.53a5.58,5.58,0,0,0-1.9.12c2.3-.3,7.92-.06,6.59.23h-1c6.53.12,19.88,0,20.86-.84.06.11-.86,1-1.25,1.19L125.56,152c-1,.73,2.91,2.47-2.5,2.89a41.89,41.89,0,0,0,6.75,0c-1.06-.1-2.64-1-1.19-1.12,4,.81,2.76.44,7.66,1.13-1.59-.16.18-1.3,2.69-1.27-.39.17.21,1.13-.71,1.25l6.26-1.12c-1.56.2-.28.95,1.12,1.27-.65-.22,5.41,0,7.07-.09l-2.65-.26c7.07.17,7-1.58,14-1.52-.84.23-2.09,1.43,1.47,1.57a50.64,50.64,0,0,1,13.42-3.22l1.14.27,1.13-.15c.37-.07.74-.17,1.1-.26a14.53,14.53,0,0,0,2.17-.61,15.86,15.86,0,0,1-2.75,1.32,17.94,17.94,0,0,1-1.95.61c-.7.21-1.45.38-2.2.54-3,.65-6.23,1.28-8.5,1.64,2.65.26.74.39,4.7.36,1.39.3-2.16.46-3.32.48l4.6.1,2.31,0c.77,0,1.5.05,2.39,0-.23-.36,1.72-.49,3.59-1a15.15,15.15,0,0,0,2.52-.78c.65-.26,1-.47.9-.58l-2.56.83c-.88.19-1.76.39-2.65.57l-2.7.31-2.5.17c-.1-.16.21-.37.83-.58s1.54-.39,2.77-.66c.6-.14,1.26-.21,2-.4s1.4-.36,2.15-.53,1.5-.49,2.28-.71l2.33-.86c.83-.21.67.19.3.67s-1,1-.88,1.06a13.08,13.08,0,0,1,1.29-.65c.59-.34,1.32-.74,2-1.12l3-1.87a9.57,9.57,0,0,1-1.13,1l-1.19.94a13.68,13.68,0,0,0,2.31-1.48c.64-.58,1.28-1.12,1.85-1.75,1.16-1.25,2.35-2.54,4-4.22.25-.31.6-.68,1-1.07l1.07-1.26c.72-.81,1.18-1.59,1.06-1.8a2.87,2.87,0,0,1-2.8,1.09,1.4,1.4,0,0,1-1.09-1.65,11.37,11.37,0,0,0,.77-1.19l.67-1.1.66-1.33.35-.7c.1-.24.18-.49.28-.72l.54-1.38c.3-.88.49-1.64.66-2,.49-1.19.71-.25.9.8s.32,2.2.78,1.14a7.45,7.45,0,0,1-.16-2.2c.28-1.64.55.75.65-2.91-.68-.57.06-7-.58-1.63-.19-3.36.14-3.57.11-7.52-.44,1.26-1.49-3.55-1.69-6.92.17.2.4-.56.5-.93,0-4,.15-6.6.24-9.13,1.86,1.23,3.52,2.33,5.72,3.68.42.45,3,2.25,1.67,1.81a21.66,21.66,0,0,1,3.4,1.66c3,2.52-3.82-2.24-1.7-.1.42-.21,4.66,2.22,7.19,3.5-.42-1-5.49-3.53-8-4.81.43-.72,5.08,1.11,11,4.31,4.66,2.63,1.69,1.68,2.54,2.07,8.46,5.39,8,3.23,14.82,8.12,2.53,2.2-.44,1,0,1.71-3.81-2.11-5.5-3.8-8-5.33l2.95,2.12a33.3,33.3,0,0,1-5.08-3c2.11,1.87,14.38,9,20.74,13.43,1.26.57,3.38,1.66,2.54.88l-2.13-1.22c-1.69-1.55,4.24,1.91,1.71.11,1.48.73,3.06,1.48,4.75,2.38l1.29.7c.44.24.89.52,1.31.7s.85.44,1.28.69.93.36,1.41.57a5.44,5.44,0,0,0,.61.8c-.1-.09-2.56-1.2-3.68-1.69a12,12,0,0,1,1.63.83l1.06.49.57.26.61.18c.4.12.82.25,1.22.35s.83.09,1.21.11a3.94,3.94,0,0,0,1.93-.33c-.51-.06-1,0-1.5-.15l-1.46-.32a13.84,13.84,0,0,0,4.75-.83,24.77,24.77,0,0,0,4.62-2.34,2.63,2.63,0,0,0-1.25.47,4.45,4.45,0,0,1-1.87.54c.54,0,.36.24-.27.48-.31.12-.71.29-1.17.43l-1.48.29-1.44.1c-.44,0-.81,0-1.07,0-.51,0-.59.14.28.43-.64-.25-1.21-.39-1.76-.63l-.81-.27c-.28-.08-.53-.23-.81-.34l-.82-.35a9.16,9.16,0,0,1-.82-.51c-.29-.2-.55-.36-.88-.62s-.7-.58-1.07-.91c0,.24,1,1.06-1.9-.83a6.47,6.47,0,0,1-.74-.25L257,131l.15.12c-.14-.06-.16-.06.06,0a9.17,9.17,0,0,1,1.33,1.18c-1.7-.5-6.35-3.39-8.05-4.15-1.69-1.16.85.25,0-.52L248,126.47c0-.52-4.23-3.48,0-1.18L244.3,123a52,52,0,0,0-6.91-4.45c-1.68-1.16-4.65-2.29-2.95-1.65l-5.92-3.33v-.13c-2.84-1.78-5.87-3.44-9-5.23-1.54-.9-3.1-1.83-4.65-2.84-.78-.5-1.55-1-2.32-1.56l-1.16-.83-.28-.21-.39-.28-1-.69c-2.5-1.43-4.89-2.79-8.29-4.91,0,1.13,0,2.37-.05,3.74q-.19.38-.39.81c0,1.28,0,2.82,0,4.49,0,.77,0,1.57,0,2.37l-.05,1.5a19.09,19.09,0,0,0,.11,4.35c-.53,1.57-.58,5.08-.53,8.84,0,.94,0,1.9,0,2.84l0,1.4v.69l0,.59a17.05,17.05,0,0,1-.48,4.06l.45.28a26.2,26.2,0,0,1-4.06,9.13l.49.08a6,6,0,0,1-.82,1.13c-.32.37-.66.77-1,1.15a20,20,0,0,1-2.76,2.16,27.66,27.66,0,0,1-7.16,3.24,11.59,11.59,0,0,1,2.55-.91c-.81.16-1.59.37-2.38.58s-1.6.38-2.41.51l-1.22.21-.61.12-.62.06c-.84.07-1.62.2-2.57.23a62.19,62.19,0,0,1-10.45.1,17.82,17.82,0,0,1-3.88,0l.39,0h-.65l-2.23-.24c.67.11,1.31.2,1.87.24-1.23,0-3.11.07-4.95.18l-.78-.48h-.42c-1.81-.18-1.45.23-.49.59-.93.08-1.77.18-2.43.29-1.47-.78-4.82.26-6.82-.57-1.24.41-9.24.31-10.22,1.16-.06-.11-.6-.16.39-.17a34.38,34.38,0,0,0-5.93,0l-.87-.61-4.47.83c-2.72-.38-3.84-.59-1.15-1.07-6.51.73-5.28.28-10.82,1l.27-.4c-2,0-5.15.55-6.34.22-4.43-.75-21.92-.11-33.29-.81,2.2,1.17-5.29-.52-5.74.39-.66-.28-2.25-.44-.41-.67-5.8.27-8.72-.44-12.72.32-.67-.28,1.24-.4.65-.57a9,9,0,0,1-2.45.08c-.59-.17.85-.23,1.77-.35-5.93,0-6.53.89-7,1.69a15.93,15.93,0,0,0-6.67.2c-1-.26-2.79-.54.89-.63-2.07,0-12.66-.38-12.87.26a10.88,10.88,0,0,0-1.73-.1c-.68,0-1.34,0-1.6,0-1.1-.09-1.93-.29-2.65-.39s-1.27-.34-1.84-.48a16,16,0,0,1-1.8-.61c-.33-.13-.7-.23-1.1-.41L18.17,149l1,.61a4.93,4.93,0,0,1-2.75-1A34.65,34.65,0,0,1,13.07,146h.13a55.35,55.35,0,0,1-3.75-4.35,7,7,0,0,1-.94-1.38A17.26,17.26,0,0,1,7,136.57l-.29.59c-.58-.15-1.18-1.9-1.45-4.18S5.15,128,5,125.56l-.27,1.75c-.35-2.64,1.4-7.38,1.53-10,.09-.58.15.91.21,1.72.61-6.94-.63-.9-.77-6.07.34-1,.86,1.23.92-2.25.28-1.74-1.1-10.1-.45-14.85-.26,1-.52,2.09-.71-.31-.1-3.69,1-10,.16-13.28.07-.47.14-.65.2-.67-.21-2.81-.35-9.14-.8-10.84,1.66-2.6-.8-17.49.73-17.43l-.09-8.66.16.23a39,39,0,0,0-.63-9.44c.1-1.27.25-.34.33-.23.06-2,.11-3.59.15-4.91s0-2.43,0-3.35c0-.47,0-1,0-1.43L5.79,24l0-.85L6,22.21a16.75,16.75,0,0,1,.37-2.15L7,19.6c.12-.86,1.39-3.37,3.6-6a30.79,30.79,0,0,1,8.71-6.87c0,.09-.14.24-.63.55a16.61,16.61,0,0,1,6.2-2.09c.57-.06,1.13-.14,1.7-.18h1.69c.53,0,1.17,0,1.76,0l1.77.08c4.63.19,8.56.23,10.19-.67L47.9,4C40.28,3.9,49,3.26,45.9,3c3-.11,7.74.54,4.06.64l-.57-.09c-1.35.94,9.46.33,9.26,1,15-.05,29.59.48,43.63.52l-1.61-.74,4.89,0c1.29.17,1.73.57-1.76.54a16,16,0,0,0,6-.51c6.84.3-2.67.85-.57.87l2.85,0-.64-.09a29.55,29.55,0,0,1,6.71-.58c2.66.15,1.36.45,2.41.48,0,0,.35.08,1.6,0l6.17.07-2.46-.58c2.73-.29,5.8,0,3-.63,4.18,1,23,.37,25.58.68a101.8,101.8,0,0,1,12.3-.36c-1.17-.12-1.87-.77,2.17-.69-.73.67,1.11.81,3.56.91,1.22.05,2.59.09,3.85.17.64,0,1.25.1,1.8.17a5.48,5.48,0,0,1,1.4.32c-.66-.19-.34-.26.46-.28.41,0,.93,0,1.51,0l1.81.22c.62.07,1.2.25,1.73.34s1,.18,1.27.26c.61.13.7,0-.25-.58,3,1.21,0,.52,2.14,1.68a19.7,19.7,0,0,1,9.36,7.44,26.86,26.86,0,0,1,1.69,2.79A27.4,27.4,0,0,1,200.4,20a32.14,32.14,0,0,1,.9,3.23,31.65,31.65,0,0,1,.42,3.37c.18.14.37-1.44.73.55-.21,1.66-.56,3.46-.84,5.19.09,2,1,1.8.41,5.38.14-.5.37-1.26.42.05-.12,2.78-.19,5.57-.23,8.37l0,5.39v6.09l11.59-7.25,9.06-5.65C228.89,41,235,37.42,241.34,34.21c-2.46,1.11-1,.15.77-.94-1.17.63-.2-.38-.55-.45l7.38-3.77c.93-1.35,7.51-4.69,7.91-5.68l-2.16,1.47c2.57-2.46-5,1.14-5.09.06-2.87,2.77-9.4,4.33-14.2,8.71-1.3.58.87-.89.11-.68a24.57,24.57,0,0,1-6,4l.3-.3c-4.31,2.72-7.45,4.56-10.74,6.45l-11,6.3a1.72,1.72,0,0,0,.51.24,5.26,5.26,0,0,1-1.78.72c-.38.44-.44.58-.24.52a9.51,9.51,0,0,0,1.05-.57,8.07,8.07,0,0,1,1.13-.6.62.62,0,0,1,.18,0c.07,0,.13,0,.15,0s0,.18-.17.37a11.08,11.08,0,0,0-3.35,1.51c0-1.6.05-3.37.07-4.85a16.85,16.85,0,0,1,.56-5.06c0-3.78-.55,1.11-.55-2.67l.3-1-.38-1c.06-2.48.43-3.73.68-3.82,0,.6.07,1.71.09,2.35a46.61,46.61,0,0,0,.09-5.87c0-1.93-.26-4-.23-4.54,0,1.32.05,2.72,0,3.88,0-1.24-.12-2.78-.26-4.21l-.36-2.2c-.14-.73-.36-1.46-.55-2.19a27.82,27.82,0,0,0-4-8.27,25.39,25.39,0,0,0-14.2-9.89l.69.49A25.52,25.52,0,0,0,185,2.13,17.75,17.75,0,0,0,183,1.79l-1.48-.25-1.3-.13-1.34-.13c-.46,0-.95,0-1.53-.06-1.15,0-2.63,0-4.72,0l.31-.05a45.67,45.67,0,0,1-6.2.31c2.11-.26-4-.51-1.2-.8-8.26.45-4.09.35-9.54,1.18l-1.26-.37a25.65,25.65,0,0,1-6.19.61c3.43-.32-2.66-.57,1.17-1-8.76-.81-13,.82-17-.36-4,1,7.59.57,5.33.79,1.89.33-3.32.76-6.07.66S127.23.9,120.19.92c.7,0,.75-.08,1.45-.07-2.64-.26-5.16.35-8.4-.07-1.81.62-4.19,0-4.72.75L115,1.35c-3.66.21-7.09,1.13-13.12.68a26.37,26.37,0,0,1,3.49-.48c-1.76-.24-3.39.15-5.22-.09.52-.79,7.85-.17,11.77-.77-1.89-.34-7.42.57-5.45-.29-2.83,1.09-6.94-.14-11.7.7l.31-.48a32.56,32.56,0,0,1-3.71.29L93.87.29C90,.82,86.43-.17,82.72.12c7.76,0,1.74.57,5,.92-9.56.63-5.5-1.24-16.2-1C73,0,77,.31,74.71.53a54.35,54.35,0,0,1-6-.53c-7.09.1,1.09.49-1.93.78C64.39.2,63.32,1,60.21,1.2l0-.48c-8.08-.31-2.15,1-9.42.63L53.84.68,50.05.85l.78-.54a53.39,53.39,0,0,1-9.45.14c.94.34-.53.88-4.11.89C34.83,1.06,38.64.88,33.56,1A8.77,8.77,0,0,1,38.17.72C38.4.56,39.3.41,39.53.26A70.93,70.93,0,0,0,31.09.19c.7,0,1.55,0,2,.11L29.4.64c-.59,0-1.3.15-1.95.23a16.36,16.36,0,0,0-2,.33c-1.25,0-.3-.29.67-.56a39.2,39.2,0,0,0-5,1.29,3.48,3.48,0,0,1,.71-.77,7.25,7.25,0,0,1,2.88-1,26.53,26.53,0,0,0-7.34,2.6,18.63,18.63,0,0,0-2,.62c-.74.32-1.34.55-.94.22a20.15,20.15,0,0,0-5.85,5,40.63,40.63,0,0,0-4.77,7.24,5.58,5.58,0,0,1-.21.68c-.12.32-.28.74-.45,1.32l-.72,1.85c-.19.62-.38,1.25-.56,1.87a13.44,13.44,0,0,0-.44,1.9,17.62,17.62,0,0,0-.32,1.95c-.05.66-.09,1.33-.14,2s0,1.26,0,1.93c0,1.28.1,2.63.23,4.06l-.7,3.26c.16,4.49.89-4.41,1.15,3.07.23,5.3-.6,2-.79,3.84a47.48,47.48,0,0,1,.5,12.08C1.31,54,1.41,52.78,1.36,51.27Zm.31,55.43c-.1-1.07-.41-3.21-.13-4C2.09,103.93,1.83,104.87,1.67,106.7Zm51,47.19a12,12,0,0,1-3.43-.1A24.13,24.13,0,0,1,52.7,153.89Zm188.61-32.4-.11,0C239.26,120,239.94,120.54,241.31,121.49Zm4.12,2.79c.46.2.47.13.33,0a12.33,12.33,0,0,1-2.38-1.36A6.28,6.28,0,0,0,245.43,124.28ZM121.06,4.79l-1-.12C122.28,4.53,121.67,4.65,121.06,4.79Z"/><path class="cls-2" d="M43.15,154.55a.7.7,0,0,1-.46-.26C42.26,154.37,42.26,154.46,43.15,154.55Z"/><path class="cls-2" d="M3.8,16l.09-.16a.47.47,0,0,0,0-.21Z"/><path class="cls-2" d="M205.65,130.85a13.1,13.1,0,0,1-.56,2.06C205.19,133,205.37,132.52,205.65,130.85Z"/><path class="cls-2" d="M267.56,134.81a11.5,11.5,0,0,1-2.55-.15l.78.18.59.07c.34.06.61.12.92.19C267.24,135,266.76,134.8,267.56,134.81Z"/><path class="cls-2" d="M282.51,118.52c-.06-.47,0-1-.07-1.45l-.22.13C282.23,119.18,282.41,120.57,282.51,118.52Z"/><path class="cls-2" d="M270.24,136.1c.15.17.69.18,1.4-.08a8.7,8.7,0,0,0,1.19-.46l1.32-.69-.33.16C274.08,134.24,272.33,135.49,270.24,136.1Z"/><path class="cls-2" d="M274.55,134.6a17.35,17.35,0,0,0,1.56-1.09c0-.17-.13,0-.4.2S275,134.27,274.55,134.6Z"/><path class="cls-2" d="M250.94,127.36c.85.65.84-.09,1.27.36C253.48,127.91,245.87,124.55,250.94,127.36Z"/><path class="cls-2" d="M272.25,136.93l-.89-.23a11,11,0,0,1-1.1.66c.33-.05.67-.09,1-.16Z"/><path class="cls-2" d="M256,132.85l3,2c0-.11.41.1.9.35A34.6,34.6,0,0,0,256,132.85Z"/><path class="cls-2" d="M259.86,135.2a9.54,9.54,0,0,0,2.55,1.12A24.5,24.5,0,0,1,259.86,135.2Z"/><path class="cls-2" d="M267.47,137.91c-.35,0-.7-.12-1.05-.17a10.56,10.56,0,0,1-1.26-.14l-1.23-.28a17.7,17.7,0,0,0,1.75.4C266.28,137.78,266.87,137.87,267.47,137.91Z"/><path class="cls-2" d="M223.42,112.64,220,110.72c-.43-.07.42.58,1.69,1.28C222.57,112.39,223.84,113.09,223.42,112.64Z"/><path class="cls-2" d="M232.72,120a6.21,6.21,0,0,1-1.27-1.23l-.42.47Z"/><path class="cls-2" d="M223,114.15c-.42-.06-5.07-2.55-.85,0C222.56,114.22,226,116.15,223,114.15Z"/><path class="cls-2" d="M202.55,136.57l.34-.95-1-.18C202.1,135.81,202.33,136.18,202.55,136.57Z"/><path class="cls-2" d="M157.62,155.56c4.61.25,1.09-.63,5.26-.32,1.09-.24-3.4-.25-2.29-.46C157.8,155,156.34,154.89,157.62,155.56Z"/><path class="cls-2" d="M160.59,154.78l1.42-.15C161.2,154.69,160.82,154.74,160.59,154.78Z"/><polygon class="cls-2" points="253.92 26.59 256.56 25.22 254.75 25.93 253.92 26.59"/><path class="cls-2" d="M258.37,23l.93.19,1.21-1.44A11,11,0,0,1,258.37,23Z"/><path class="cls-2" d="M.36,114.94l.16.23a9.38,9.38,0,0,0,.21-2.55Z"/><polygon class="cls-2" points="0.85 74.71 0.83 75.4 1.42 74.11 0.85 74.71"/><path class="cls-2" d="M.1,41c0,1.37.11,3,.08,4.38C.07,42.32.83,40.57.1,41Z"/></g></g></svg>