<svg xmlns="http://www.w3.org/2000/svg" viewBox="0 0 362.74 512"><defs><style>.cls-1{fill:#264de4;}.cls-2{fill:#2965f1;}.cls-3{fill:#ebebeb;}.cls-4{fill:#fff;}</style></defs><g id="Layer_2" data-name="Layer 2"><g id="Layer_1-2" data-name="Layer 1"><g id="Layer_2-2" data-name="Layer 2"><g id="Layer_1-2-2" data-name="Layer 1-2"><path class="cls-1" d="M181.14,512,33,470.88,0,100.62H362.74l-33.06,370.2Z"/><path class="cls-2" d="M301.41,447.25l28.23-316.36H181.37V480.52Z"/><path class="cls-3" d="M75.68,268.22l4.07,45.41H181.37V268.22ZM67.5,176.31l4.13,45.41H181.37V176.31ZM181.37,386.15l-.21.06-50.57-13.66-3.23-36.22H81.78l6.37,71.3,93,25.83.2-.06Z"/><path d="M85.37,0h55V23h-32V46h32V69h-55Zm66,0h55V20h-32v4h32V70h-55V49h32V45h-32V0Zm66,0h55V20h-32v4h32V70h-55V49h32V45h-32V0Z"/><path class="cls-4" d="M286.77,268.22,295,176.31H181.22v45.41h64l-4.13,46.5H181.21v45.41h55.92l-5.27,58.89-50.65,13.67v47.24l93.1-25.8L275,400l10.67-119.55,1.11-12.19Z"/></g></g></g></g></svg>